<svg xmlns="http://www.w3.org/2000/svg" viewBox="0 0 19.86244 18"><defs><style>.a{fill:#666;}</style></defs><title>icon_calender</title><path class="a" d="M18.77607,1.862H16.75882V3.10342h1.86207v13.6552H1.24154V3.10342H3.10362V1.862H1.08637A1.10484,1.10484,0,0,0,.00016,2.98517V16.87655A1.10484,1.10484,0,0,0,1.08606,18h17.69a1.10483,1.10483,0,0,0,1.08621-1.12314V2.98548A1.10482,1.10482,0,0,0,18.77638,1.862Z"/><rect class="a" x="3.72431" y="6.82756" width="1.24138" height="1.24138"/><rect class="a" x="7.44845" y="6.82756" width="1.24138" height="1.24138"/><rect class="a" x="11.1726" y="6.82756" width="1.24138" height="1.24138"/><rect class="a" x="14.89675" y="6.82756" width="1.24138" height="1.24138"/><rect class="a" x="3.72431" y="9.93102" width="1.24138" height="1.24138"/><rect class="a" x="7.44845" y="9.93102" width="1.24138" height="1.24138"/><rect class="a" x="11.1726" y="9.93102" width="1.24138" height="1.24138"/><rect class="a" x="14.89675" y="9.93102" width="1.24138" height="1.24138"/><rect class="a" x="3.72431" y="13.03447" width="1.24138" height="1.24138"/><rect class="a" x="7.44845" y="13.03447" width="1.24138" height="1.24138"/><rect class="a" x="11.1726" y="13.03447" width="1.24138" height="1.24138"/><rect class="a" x="14.89675" y="13.03447" width="1.24138" height="1.24138"/><path class="a" d="M4.96569,4.3448a.62069.62069,0,0,0,.62069-.62069V.62069a.62069.62069,0,1,0-1.24138,0V3.72411A.62069.62069,0,0,0,4.96569,4.3448Z"/><path class="a" d="M14.89675,4.3448a.62069.62069,0,0,0,.62069-.62069V.62069a.62069.62069,0,1,0-1.24138,0V3.72411A.62069.62069,0,0,0,14.89675,4.3448Z"/><rect class="a" x="6.82776" y="1.86203" width="6.20691" height="1.24138"/></svg>





<svg arialabel="Wind" class="Icon--icon--2AbGu Icon--actionTheme--2vSlg DailyContent--windIcon--35FOj" theme="action" set="current-conditions" name="wind" data-testid="Icon" viewBox="0 0 24 24"><path d="M6 8.67h5.354c1.457 0 2.234-1.158 2.234-2.222S12.687 4.4 11.354 4.4c-.564 0-1.023.208-1.366.488M3 11.67h15.54c1.457 0 2.235-1.158 2.235-2.222S19.873 7.4 18.54 7.4c-.747 0-1.311.365-1.663.78M6 15.4h9.389c1.457 0 2.234 1.159 2.234 2.223 0 1.064-.901 2.048-2.234 2.048a2.153 2.153 0 0 1-1.63-.742" stroke-width="2" stroke="currentColor" stroke-linecap="round" fill="none"></path></svg>




<!-- this is a drop -->

<svg class="Icon--icon--2AbGu Icon--actionTheme--2vSlg DetailsTable--icon--34dUa" theme="action" set="current-conditions" name="humidity" data-testid="Icon" viewBox="0 0 24 24"><path fill-rule="evenodd" d="M11.743 17.912a4.182 4.182 0 0 1-2.928-1.182 3.972 3.972 0 0 1-.614-4.962.743.743 0 0 1 .646-.349c.234 0 .476.095.66.275l4.467 4.355c.385.376.39.998-.076 1.275a4.216 4.216 0 0 1-2.155.588M11.855 4c.316 0 .61.14.828.395.171.2.36.416.562.647 1.857 2.126 4.965 5.684 4.965 8.73 0 3.416-2.85 6.195-6.353 6.195-3.505 0-6.357-2.78-6.357-6.195 0-3.082 2.921-6.406 4.854-8.605.242-.275.47-.535.673-.772A1.08 1.08 0 0 1 11.855 4"></path></svg>


<!-- this the uv index -->

<svg class="Icon--icon--2AbGu Icon--actionTheme--2vSlg DetailsTable--icon--34dUa" theme="action" set="current-conditions" name="uv" data-testid="Icon" viewBox="0 0 24 24"><path d="M7.4 5.598a.784.784 0 0 1 .25-.92c.335-.256.824-.197 1.02.062.066.063.066.063.08.085l2.406 3.152-.626.238a3.983 3.983 0 0 0-1.097.633l-.522.424L7.4 5.598zm4.539 2.358c-.21 0-.418.017-.625.05l-.664.106.09-.666.438-3.266c.013-.072.013-.072.012-.057a.783.783 0 0 1 .666-.616.78.78 0 0 1 .872.639l.006.038.507 3.933-.662-.108a3.957 3.957 0 0 0-.64-.053zm-7.781 3.19l.026-.004 3.934-.507-.108.662a3.98 3.98 0 0 0-.003 1.266l.105.664-.665-.09-3.265-.439a.784.784 0 0 1-.676-.679c-.054-.42.238-.809.63-.869l.022-.004zm11.504-.617a3.98 3.98 0 0 0-.632-1.097l-.425-.522.623-.256 3.056-1.256a.787.787 0 0 1 .916.253c.256.337.199.817-.104 1.063l-.045.037-3.151 2.405-.238-.627zm-1.205-1.672a3.984 3.984 0 0 0-1.095-.637l-.626-.24.41-.532 2.008-2.602c.059-.07.059-.07.046-.052a.78.78 0 0 1 1.306.227c.076.185.079.39.02.54l-.021.06-1.528 3.662-.52-.426zM4.595 7.793c.162-.387.611-.58.971-.441.017.004.017.004.055.02L9.283 8.9l-.425.52a3.985 3.985 0 0 0-.636 1.094l-.24.627-3.144-2.425a.784.784 0 0 1-.243-.924zm14.443 7.367c.054.045.054.045.044.04a.784.784 0 0 1 .199.884c-.163.386-.61.58-.964.443-.024-.006-.024-.006-.062-.022l-3.662-1.529.426-.52a3.98 3.98 0 0 0 .636-1.094l.241-.626 3.142 2.424zm1.332-3.303c.053.422-.239.809-.63.87l-.035.006-3.945.508.108-.662a3.999 3.999 0 0 0 .003-1.266l-.105-.663.665.09 3.272.44c.068.012.068.012.052.01a.784.784 0 0 1 .615.667zm-3.894 6.421c.024.068.024.068.017.053a.786.786 0 0 1-.27.87c-.332.25-.816.194-1.047-.091-.022-.023-.022-.023-.05-.058l-2.406-3.154.626-.237a3.977 3.977 0 0 0 1.097-.632l.523-.425 1.51 3.674zm-8.26-4.932c.151.397.365.767.633 1.097l.424.522-.622.256-3.054 1.255a.787.787 0 0 1-.92-.25.781.781 0 0 1-.154-.58c.027-.199.127-.379.227-.452.045-.046.045-.046.075-.069l3.153-2.406.238.627zm3.723 2.572c.209 0 .417-.016.625-.049l.662-.103-.089.664-.438 3.26-.012.062a.785.785 0 0 1-.666.618c-.048.005-.048.005-.101.006-.386 0-.714-.28-.764-.612-.01-.043-.01-.043-.014-.072l-.507-3.934.662.108c.213.035.427.052.642.052zM7.366 18.27l.006-.015L8.9 14.592l.52.426a3.99 3.99 0 0 0 1.094.636l.626.241-.41.531-2.012 2.609-.04.046a.788.788 0 0 1-.886.2.787.787 0 0 1-.428-1.011z"></path><path d="M11.911 14.322a2.411 2.411 0 1 0 0-4.822 2.411 2.411 0 0 0 0 4.822zm0 2a4.411 4.411 0 1 1 0-8.822 4.411 4.411 0 0 1 0 8.822z"></path></svg>


<!-- this is the sunrise  -->

<svg class="Icon--icon--2AbGu Icon--actionTheme--2vSlg DetailsTable--icon--34dUa" theme="action" set="current-conditions" name="sunrise-sun" data-testid="Icon" viewBox="0 0 24 24"><path d="M12.003 16.125v-2.21m-5.602 2.129l1.69 1.441m9.237-1.489l-1.4 1.63" stroke="currentColor" stroke-width="2" stroke-linecap="round"></path><path d="M4.05 20.938h2.48m11.27 0h2.481" stroke="currentColor" stroke-width="2" stroke-linecap="round" stroke-linejoin="round"></path><path d="M12 9.938V4.426M8.563 6.5L12 3.062M15.438 6.5L12 3.062" stroke="currentColor" stroke-linecap="round" stroke-width="2"></path><path d="M12.02 21.605h3.059c.421 0 .543-.229.543-.455 0-1.735-1.613-3.142-3.602-3.142-1.99 0-3.603 1.407-3.603 3.142 0 .266.1.455.529.455h3.074z"></path></svg>

<!-- this is the up arrow svg -->

<svg version="1.1" id="Layer_1" xmlns="http://www.w3.org/2000/svg" xmlns:xlink="http://www.w3.org/1999/xlink" x="0px" y="0px" viewBox="0 0 330 330" style="enable-background:new 0 0 330 330;" xml:space="preserve"><path id="XMLID_224_" d="M325.606,229.393l-150.004-150C172.79,76.58,168.974,75,164.996,75c-3.979,0-7.794,1.581-10.607,4.394l-149.996,150c-5.858,5.858-5.858,15.355,0,21.213c5.857,5.857,15.355,5.858,21.213,0l139.39-139.393l139.397,139.393C307.322,253.536,311.161,255,315,255c3.839,0,7.678-1.464,10.607-4.394C331.464,244.748,331.464,235.251,325.606,229.393z"/></svg>
